<?xml version="1.0" encoding="utf-8"?>
<!-- Generator: Adobe Illustrator 27.0.0, SVG Export Plug-In . SVG Version: 6.00 Build 0)  -->
<svg version="1.1" id="Layer_1" xmlns="http://www.w3.org/2000/svg" xmlns:xlink="http://www.w3.org/1999/xlink" x="0px" y="0px"
	 viewBox="0 0 661.2 134.3" style="enable-background:new 0 0 661.2 134.3;" xml:space="preserve">
<style type="text/css">
	.st0{fill:#2E3191;}
	.st1{fill:#0DB04B;}
	.st2{fill:url(#SVGID_1_);}
	.st3{fill:url(#SVGID_00000063620590498719002140000001587815138718444444_);}
	.st4{fill:url(#SVGID_00000101785799568076834870000018445883318725283980_);}
	.st5{fill:url(#SVGID_00000111912040237198656140000000267439675522683552_);}
	.st6{fill:url(#SVGID_00000177468223762997956110000017313289303650268346_);}
	.st7{fill:url(#SVGID_00000003809457296929025560000002142106061871043209_);}
	.st8{fill:url(#SVGID_00000003798277164089714370000009806033575881025469_);}
	.st9{fill:url(#SVGID_00000163034661991583521190000014189558954331155329_);}
	.st10{fill:#FFFFFF;}
</style>
<g>
	<g>
		<g>
			<path class="st0" d="M295,38.3c0,0.8-0.3,1.2-1.1,1.2h-3.7c-0.6,0-0.9-0.1-1.1-0.6l-9-15.5c-0.7-1.1-1.4-2.7-1.9-3.8v18.7
				c0,0.8-0.3,1.2-1.1,1.2h-3.7c-0.8,0-1.1-0.4-1.1-1.2V8.8c0-0.8,0.3-1.2,1.1-1.2h3.7c0.5,0,0.8,0.1,1,0.5l9.4,16.1
				c0.5,0.7,1.2,2.4,1.6,3.3V8.8c0-0.8,0.3-1.2,1.1-1.2h3.7c0.8,0,1.1,0.4,1.1,1.2V38.3z"/>
			<path class="st0" d="M304.3,39.5c-0.8,0-1.1-0.4-1.1-1.2V8.9c0-0.8,0.3-1.2,1.1-1.2h16c0.8,0,1.2,0.3,1.2,1.1v2.9
				c0,0.8-0.4,1.2-1.2,1.2h-10.8v7.6h10c0.8,0,1.2,0.3,1.2,1.1v2.8c0,0.8-0.4,1.1-1.2,1.1h-10v8.7h11.3c0.8,0,1.2,0.3,1.2,1.1v2.9
				c0,0.8-0.3,1.2-1.2,1.2H304.3z"/>
			<path class="st0" d="M329.8,39.5c-0.7,0-1-0.4-1-1.2V8.9c0-0.8,0.3-1.2,1.1-1.2h10.2c8.5,0,11.4,3.7,11.4,7.6v16.6
				c0,3.9-2.9,7.6-11.4,7.6H329.8z M335.1,12.9v21.3h5c3.2,0,5.1-1.2,5.1-3.5V16.4c0-2.3-1.9-3.5-5.1-3.5H335.1z"/>
			<path class="st0" d="M360.4,39.5c-0.8,0-1.1-0.4-1.1-1.2V8.9c0-0.8,0.3-1.2,1.1-1.2h16c0.8,0,1.2,0.3,1.2,1.1v2.9
				c0,0.8-0.4,1.2-1.2,1.2h-10.8v7.6h10c0.8,0,1.2,0.3,1.2,1.1v2.8c0,0.8-0.4,1.1-1.2,1.1h-10v8.7h11.3c0.8,0,1.2,0.3,1.2,1.1v2.9
				c0,0.8-0.3,1.2-1.2,1.2H360.4z"/>
			<path class="st0" d="M391.2,27.4v10.9c0,0.8-0.3,1.2-1.1,1.2H386c-0.8,0-1.1-0.4-1.1-1.2V8.9c0-0.8,0.3-1.2,1.1-1.2h9.8
				c8.5,0,11.3,3.7,11.3,7.6v4.4c0,2.8-1.4,5.4-5.1,6.7l5,11.8c0.3,0.7-0.2,1.2-1.1,1.2h-4.1c-0.7,0-0.8-0.5-1.2-1.2l-4.6-10.9h-0.3
				H391.2z M391.2,12.9v9.2h4.6c3.1,0,5-1.2,5-3.5v-2.2c0-2.3-1.9-3.5-5-3.5H391.2z"/>
			<path class="st0" d="M420.9,34.2h10.4c0.8,0,1.2,0.3,1.2,1.1v2.9c0,0.8-0.4,1.2-1.2,1.2h-15.8c-0.7,0-1-0.4-1-1.2V8.9
				c0-0.8,0.3-1.2,1.1-1.2h4.1c0.8,0,1.1,0.4,1.1,1.2V34.2z"/>
			<path class="st0" d="M451.8,8.8l8.7,29.5c0.3,0.7,0,1.2-0.8,1.2h-4.2c-0.8,0-1.2-0.4-1.4-1.2l-1.6-5.7h-8.7l-1.6,5.7
				c-0.2,0.7-0.6,1.2-1.4,1.2h-3.8c-0.8,0-1.1-0.4-0.9-1.2l8.7-29.5c0.3-0.8,0.6-1.2,1.4-1.2h4.1C451.1,7.7,451.5,8,451.8,8.8z
				 M448.1,13.8c-0.4,3-0.9,6.7-1.4,8.5l-1.6,5.2h5.9l-1.5-5.2C449,20.6,448.4,16.6,448.1,13.8z"/>
			<path class="st0" d="M488.8,38.3c0,0.8-0.3,1.2-1.1,1.2H484c-0.6,0-0.9-0.1-1.1-0.6l-9-15.5c-0.7-1.1-1.4-2.7-1.9-3.8v18.7
				c0,0.8-0.3,1.2-1.1,1.2h-3.7c-0.8,0-1.1-0.4-1.1-1.2V8.8c0-0.8,0.3-1.2,1.1-1.2h3.7c0.5,0,0.8,0.1,1,0.5l9.4,16.1
				c0.5,0.7,1.2,2.4,1.6,3.3V8.8c0-0.8,0.3-1.2,1.1-1.2h3.7c0.8,0,1.1,0.4,1.1,1.2V38.3z"/>
			<path class="st0" d="M498,39.5c-0.7,0-1-0.4-1-1.2V8.9c0-0.8,0.3-1.2,1.1-1.2h10.2c8.5,0,11.4,3.7,11.4,7.6v16.6
				c0,3.9-2.9,7.6-11.4,7.6H498z M503.3,12.9v21.3h5c3.2,0,5.1-1.2,5.1-3.5V16.4c0-2.3-1.9-3.5-5.1-3.5H503.3z"/>
			<path class="st0" d="M537.9,12.4c-3,0-4.6,1.1-4.6,3.4v0.7c0,1.6,1.2,2.2,1.9,2.5l8.1,2.9c3.2,1.1,5.5,3.3,5.5,6.7v3.6
				c0,3.9-2.8,7.6-11.1,7.6c-8.3,0-11.2-3.7-11.2-7.6v-2.9c0-0.8,0.3-1.2,1.1-1.2h3.9c0.8,0,1.1,0.4,1.1,1.2v2.1
				c0,2.3,1.8,3.4,5,3.4c3.1,0,5-1.1,5-3.4v-1.5c0-2-2.2-2.8-4-3.5l-7.2-2.8c-2.2-0.8-4.3-3.2-4.3-6v-2.7c0-3.9,2.4-7.6,10.6-7.6
				c8.2,0,10.8,3.7,10.8,7.6v1.9c0,0.8-0.3,1.2-1.2,1.2h-3.9c-0.8,0-1.1-0.4-1.1-1.2v-1.1C542.4,13.5,540.8,12.4,537.9,12.4z"/>
			<path class="st0" d="M278.6,67.3h10.1V55.6c0-0.8,0.3-1.2,1.1-1.2h4.1c0.8,0,1.1,0.4,1.1,1.2V85c0,0.8-0.3,1.2-1.1,1.2h-4.1
				c-0.8,0-1.1-0.4-1.1-1.2V72.5h-10.1V85c0,0.8-0.3,1.2-1.1,1.2h-4.1c-0.8,0-1.1-0.4-1.1-1.2V55.6c0-0.8,0.3-1.2,1.1-1.2h4.1
				c0.8,0,1.1,0.4,1.1,1.2V67.3z"/>
			<path class="st0" d="M304.3,86.2c-0.8,0-1.1-0.4-1.1-1.2V55.6c0-0.8,0.3-1.2,1.1-1.2h16c0.8,0,1.2,0.3,1.2,1.1v2.9
				c0,0.8-0.4,1.2-1.2,1.2h-10.8v7.6h10c0.8,0,1.2,0.3,1.2,1.1v2.8c0,0.8-0.4,1.1-1.2,1.1h-10V81h11.3c0.8,0,1.2,0.3,1.2,1.1V85
				c0,0.8-0.3,1.2-1.2,1.2H304.3z"/>
			<path class="st0" d="M335.1,74.1V85c0,0.8-0.3,1.2-1.1,1.2h-4.1c-0.8,0-1.1-0.4-1.1-1.2V55.6c0-0.8,0.3-1.2,1.1-1.2h9.8
				c8.5,0,11.3,3.7,11.3,7.6v4.4c0,2.8-1.4,5.4-5.1,6.7l5,11.8c0.3,0.7-0.2,1.2-1.1,1.2h-4.1c-0.7,0-0.8-0.5-1.2-1.2L340,74.1h-0.3
				H335.1z M335.1,59.7v9.2h4.6c3.1,0,5-1.2,5-3.5v-2.2c0-2.3-1.9-3.5-5-3.5H335.1z"/>
			<path class="st0" d="M368.9,59.1c-3,0-4.6,1.1-4.6,3.4v0.7c0,1.6,1.2,2.2,1.9,2.5l8.1,2.9c3.2,1.1,5.5,3.3,5.5,6.7V79
				c0,3.9-2.8,7.6-11.1,7.6c-8.3,0-11.2-3.7-11.2-7.6V76c0-0.8,0.3-1.2,1.1-1.2h3.9c0.8,0,1.1,0.4,1.1,1.2v2.1c0,2.3,1.8,3.4,5,3.4
				c3.1,0,5-1.1,5-3.4v-1.5c0-2-2.2-2.8-4-3.5l-7.2-2.8c-2.2-0.8-4.3-3.2-4.3-6v-2.7c0-3.9,2.4-7.6,10.6-7.6
				c8.2,0,10.8,3.7,10.8,7.6v1.9c0,0.8-0.3,1.2-1.2,1.2h-3.9c-0.8,0-1.1-0.4-1.1-1.2v-1.1C373.4,60.2,371.9,59.1,368.9,59.1z"/>
			<path class="st0" d="M388.1,86.2c-0.8,0-1.1-0.4-1.1-1.2V55.6c0-0.8,0.3-1.2,1.1-1.2h16c0.8,0,1.2,0.3,1.2,1.1v2.9
				c0,0.8-0.4,1.2-1.2,1.2h-10.8v7.6h10c0.8,0,1.2,0.3,1.2,1.1v2.8c0,0.8-0.4,1.1-1.2,1.1h-10V81h11.3c0.8,0,1.2,0.3,1.2,1.1V85
				c0,0.8-0.3,1.2-1.2,1.2H388.1z"/>
			<path class="st0" d="M435.3,85c0,0.8-0.3,1.2-1.1,1.2h-3.7c-0.6,0-0.9-0.1-1.1-0.6l-9-15.5c-0.7-1.1-1.4-2.7-1.9-3.8V85
				c0,0.8-0.3,1.2-1.1,1.2h-3.7c-0.8,0-1.1-0.4-1.1-1.2V55.6c0-0.8,0.3-1.2,1.1-1.2h3.7c0.5,0,0.8,0.1,1,0.5l9.4,16.1
				c0.5,0.7,1.2,2.4,1.6,3.3V55.6c0-0.8,0.3-1.2,1.1-1.2h3.7c0.8,0,1.1,0.4,1.1,1.2V85z"/>
			<path class="st0" d="M449.8,85c0,0.8-0.3,1.2-1.1,1.2h-4.1c-0.8,0-1.1-0.4-1.1-1.2V55.6c0-0.8,0.3-1.2,1.1-1.2h4.1
				c0.8,0,1.1,0.4,1.1,1.2V85z"/>
			<path class="st0" d="M480.7,85c0,0.8-0.3,1.2-1.1,1.2h-3.7c-0.6,0-0.9-0.1-1.1-0.6l-9-15.5c-0.7-1.1-1.4-2.7-1.9-3.8V85
				c0,0.8-0.3,1.2-1.1,1.2h-3.7c-0.8,0-1.1-0.4-1.1-1.2V55.6c0-0.8,0.3-1.2,1.1-1.2h3.7c0.5,0,0.8,0.1,1,0.5l9.4,16.1
				c0.5,0.7,1.2,2.4,1.6,3.3V55.6c0-0.8,0.3-1.2,1.1-1.2h3.7c0.8,0,1.1,0.4,1.1,1.2V85z"/>
			<path class="st0" d="M499.3,59.1c-3,0-4.6,1.1-4.6,3.4v0.7c0,1.6,1.2,2.2,1.9,2.5l8.1,2.9c3.2,1.1,5.5,3.3,5.5,6.7V79
				c0,3.9-2.8,7.6-11.1,7.6c-8.3,0-11.2-3.7-11.2-7.6V76c0-0.8,0.3-1.2,1.1-1.2h3.9c0.8,0,1.1,0.4,1.1,1.2v2.1c0,2.3,1.8,3.4,5,3.4
				c3.1,0,5-1.1,5-3.4v-1.5c0-2-2.2-2.8-4-3.5l-7.2-2.8c-2.2-0.8-4.3-3.2-4.3-6v-2.7c0-3.9,2.4-7.6,10.6-7.6
				c8.2,0,10.8,3.7,10.8,7.6v1.9c0,0.8-0.3,1.2-1.2,1.2h-3.9c-0.8,0-1.1-0.4-1.1-1.2v-1.1C503.8,60.2,502.3,59.1,499.3,59.1z"/>
			<path class="st0" d="M535.1,54.4c0.8,0,1.2,0.3,1.2,1.1v2.9c0,0.8-0.4,1.2-1.2,1.2h-6.6V85c0,0.8-0.3,1.2-1.1,1.2h-4.1
				c-0.8,0-1.2-0.4-1.2-1.2V59.7h-6.6c-0.8,0-1.2-0.3-1.2-1.2v-2.9c0-0.8,0.3-1.1,1.2-1.1H535.1z"/>
			<path class="st0" d="M548.1,85c0,0.8-0.3,1.2-1.1,1.2H543c-0.8,0-1.1-0.4-1.1-1.2V55.6c0-0.8,0.3-1.2,1.1-1.2h4.1
				c0.8,0,1.1,0.4,1.1,1.2V85z"/>
			<path class="st0" d="M574.4,54.4c0.8,0,1.2,0.3,1.2,1.1v2.9c0,0.8-0.4,1.2-1.2,1.2h-6.6V85c0,0.8-0.3,1.2-1.1,1.2h-4.1
				c-0.8,0-1.2-0.4-1.2-1.2V59.7h-6.6c-0.8,0-1.2-0.3-1.2-1.2v-2.9c0-0.8,0.3-1.1,1.2-1.1H574.4z"/>
			<path class="st0" d="M587.1,77.9c0,2.3,1.9,3.5,5,3.5c3.1,0,5.1-1.2,5.1-3.5V55.6c0-0.8,0.3-1.2,1.1-1.2h4.1
				c0.8,0,1.1,0.4,1.1,1.2V79c0,3.9-2.9,7.6-11.4,7.6c-8.5,0-11.4-3.7-11.4-7.6V55.6c0-0.8,0.3-1.2,1.2-1.2h4.1
				c0.8,0,1.1,0.4,1.1,1.2V77.9z"/>
			<path class="st0" d="M617.6,77.9c0,2.3,1.9,3.5,5,3.5c3.1,0,5.1-1.2,5.1-3.5V55.6c0-0.8,0.3-1.2,1.1-1.2h4.1
				c0.8,0,1.1,0.4,1.1,1.2V79c0,3.9-2.9,7.6-11.4,7.6c-8.5,0-11.4-3.7-11.4-7.6V55.6c0-0.8,0.3-1.2,1.2-1.2h4.1
				c0.8,0,1.1,0.4,1.1,1.2V77.9z"/>
			<path class="st0" d="M660,54.4c0.8,0,1.2,0.3,1.2,1.1v2.9c0,0.8-0.4,1.2-1.2,1.2h-6.6V85c0,0.8-0.3,1.2-1.1,1.2h-4.1
				c-0.8,0-1.2-0.4-1.2-1.2V59.7h-6.6c-0.8,0-1.2-0.3-1.2-1.2v-2.9c0-0.8,0.3-1.1,1.2-1.1H660z"/>
		</g>
	</g>
	<g>
		<path class="st1" d="M296.2,127.6c0,0.5-0.2,0.8-0.8,0.8H293c-0.5,0-0.8-0.3-0.8-0.8v-19.2c-0.3,1-0.7,2.4-1,3.1l-4.8,11.7
			c-0.3,0.5-0.5,0.8-1,0.8h-2.2c-0.5,0-0.8-0.3-1-0.8L277,111c-0.2-0.5-0.5-1.5-0.8-2.5v19.1c0,0.5-0.2,0.8-0.8,0.8h-2.3
			c-0.5,0-0.8-0.3-0.8-0.8v-26.8c0-0.5,0.2-0.8,0.8-0.8h2.3c0.4,0,0.5,0.2,0.7,0.5l7.2,16.8c0.3,0.7,0.6,1.7,0.9,2.5l0.9-2.5
			l7.1-16.9c0.1-0.3,0.3-0.4,0.7-0.4h2.5c0.5,0,0.8,0.3,0.8,0.8V127.6z"/>
		<path class="st1" d="M302.2,113c0-3.3,2.2-5.6,7.9-5.6c5.9,0,7.9,2.3,7.9,5.6v14.6c0,0.6-0.2,0.8-0.8,0.8h-2.2
			c-0.6,0-0.7-0.3-0.8-0.8l-0.1-1.2c-1.2,1-3.4,2.4-6.6,2.4c-3.9,0-5.9-2.3-5.9-5.1v-2c0-2.7,1.9-5.1,5.8-5.1h6.6v-3.2
			c0-1.7-0.9-2.8-4-2.8c-3.2,0-4.1,1-4.1,2.7v0.3c0,0.6-0.2,0.8-0.8,0.8H303c-0.5,0-0.8-0.3-0.8-0.8V113z M314.1,123.3v-3.6h-5.8
			c-2.1,0-2.8,0.9-2.8,2.5v0.8c0,1.6,0.9,2.3,3,2.3C311.2,125.4,313.2,124,314.1,123.3z"/>
		<path class="st1" d="M334.4,112.5c0-1.5-1.4-2.2-4-2.2c-2.5,0-3.9,0.7-3.9,2.2v0.7c0,1.1,1,1.7,1.8,1.9l6.3,2.2
			c2.3,0.8,3.8,2.1,3.8,4.1v2.3c0,2.6-2.3,5-7.9,5c-5.7,0-7.9-2.4-7.9-5v-1c0-0.5,0.2-0.8,0.7-0.8h2.2c0.5,0,0.7,0.2,0.7,0.8v0.9
			c0,1.5,1.6,2.2,4.3,2.2c2.6,0,4.3-0.7,4.3-2.2v-1.1c0-1-0.8-1.5-2.2-2l-6.3-2.2c-1.5-0.5-3.3-2.1-3.3-4.2v-1.5
			c0-2.6,1.9-5.1,7.6-5.1c5.6,0,7.6,2.5,7.6,5.1v1c0,0.5-0.2,0.8-0.8,0.8h-2.2c-0.5,0-0.7-0.2-0.7-0.8V112.5z"/>
		<path class="st1" d="M352.1,107.7c0.5,0,0.8,0.2,0.8,0.8v1.7c0,0.6-0.3,0.8-0.8,0.8h-4.3v11.2c0,1.8,1.1,2.8,4.2,2.8h0.8
			c0.5,0,0.8,0.3,0.8,0.8v1.8c0,0.6-0.2,0.8-0.8,0.8h-1.4c-5.9,0-7.6-2-7.6-5.7V111h-2.3c-0.6,0-0.8-0.3-0.8-0.8v-1.5
			c0-0.5,0.2-0.7,0.8-0.8l2-0.2h0.2v-4.2c0-0.6,0.3-0.8,0.8-0.8h2.5c0.5,0,0.8,0.2,0.8,0.8v4.2H352.1z"/>
		<path class="st1" d="M372.7,118.1c0,0.5-0.2,0.8-0.7,0.8h-11.4v3.8c0,1.7,0.8,2.8,4.2,2.8c3.3,0,4.2-1.1,4.2-2.8v-0.5
			c0-0.5,0.2-0.8,0.8-0.8h2.1c0.5,0,0.8,0.2,0.8,0.8v0.7c0,3.4-2,5.7-8,5.7c-5.9,0-8-2.3-8-5.7V113c0-3.4,2.1-5.7,8.1-5.7
			c5.9,0,7.9,2.3,7.9,5.7V118.1z M360.7,115.9h8.3v-2.6c0-1.7-1-2.8-4.2-2.8c-3.2,0-4.2,1.1-4.2,2.8V115.9z"/>
		<path class="st1" d="M389,108.1v1.9c0,0.6-0.3,0.8-0.8,0.8c-3,0.2-5.5,1.8-6.5,2.7v14c0,0.6-0.2,0.8-0.8,0.8h-2.4
			c-0.6,0-0.8-0.3-0.8-0.8v-19.1c0-0.5,0.2-0.8,0.8-0.8h2.2c0.6,0,0.8,0.2,0.8,0.8l0.1,1.8c1.1-1.1,3.5-2.9,6.5-2.9
			C388.7,107.3,389,107.6,389,108.1z"/>
		<path class="st1" d="M410.3,107.7c0.5,0,0.8,0.2,0.8,0.8v1.7c0,0.6-0.3,0.8-0.8,0.8H406v11.2c0,1.8,1.1,2.8,4.2,2.8h0.8
			c0.5,0,0.8,0.3,0.8,0.8v1.8c0,0.6-0.3,0.8-0.8,0.8h-1.4c-5.9,0-7.6-2-7.6-5.7V111h-2.3c-0.6,0-0.8-0.3-0.8-0.8v-1.5
			c0-0.5,0.2-0.7,0.8-0.8l2-0.2h0.2v-4.2c0-0.6,0.3-0.8,0.8-0.8h2.5c0.5,0,0.8,0.2,0.8,0.8v4.2H410.3z"/>
		<path class="st1" d="M419.5,109.7c1.2-1,3.5-2.3,6.8-2.3c3.9,0,5.9,2.3,5.9,5.3v14.9c0,0.6-0.2,0.8-0.8,0.8h-2.4
			c-0.5,0-0.8-0.3-0.8-0.8v-13.9c0-1.7-0.8-2.8-3.1-2.8c-2.7,0-4.8,1.4-5.7,2.1v14.5c0,0.6-0.2,0.8-0.8,0.8h-2.4
			c-0.6,0-0.8-0.3-0.8-0.8V100c0-0.6,0.2-0.8,0.8-0.8h2.4c0.5,0,0.8,0.2,0.8,0.8V109.7z"/>
		<path class="st1" d="M453.2,118.1c0,0.5-0.2,0.8-0.7,0.8h-11.4v3.8c0,1.7,0.8,2.8,4.2,2.8c3.3,0,4.2-1.1,4.2-2.8v-0.5
			c0-0.5,0.2-0.8,0.8-0.8h2.1c0.5,0,0.8,0.2,0.8,0.8v0.7c0,3.4-2,5.7-8,5.7c-5.9,0-8-2.3-8-5.7V113c0-3.4,2.1-5.7,8.1-5.7
			c5.9,0,7.9,2.3,7.9,5.7V118.1z M441.1,115.9h8.3v-2.6c0-1.7-1-2.8-4.2-2.8c-3.2,0-4.2,1.1-4.2,2.8V115.9z"/>
		<path class="st1" d="M469.8,107.7c0.6,0,0.8,0.2,0.8,0.8l0,1.3c1.1-1,3.3-2.4,6.7-2.4c2.7,0,4.5,1.1,5.3,2.8
			c1-0.9,3.2-2.8,7.1-2.8c3.9,0,5.9,2.3,5.9,5.3v14.9c0,0.6-0.3,0.8-0.8,0.8h-2.4c-0.6,0-0.8-0.3-0.8-0.8v-13.9
			c0-1.7-0.8-2.8-3.1-2.8c-2.8,0-4.7,1.5-5.5,2.2c0,0.2,0,0.4,0,0.5v13.9c0,0.6-0.2,0.8-0.8,0.8H480c-0.5,0-0.8-0.3-0.8-0.8v-13.9
			c0-1.7-0.8-2.8-3.1-2.8c-2.7,0-4.6,1.4-5.4,2.1v14.5c0,0.6-0.2,0.8-0.8,0.8h-2.4c-0.6,0-0.8-0.3-0.8-0.8v-19.1
			c0-0.5,0.2-0.8,0.8-0.8H469.8z"/>
		<path class="st1" d="M505.2,103.8c0,0.5-0.2,0.8-0.8,0.8H502c-0.6,0-0.8-0.2-0.8-0.8V100c0-0.6,0.2-0.8,0.8-0.8h2.4
			c0.5,0,0.8,0.2,0.8,0.8V103.8z M505.2,127.5c0,0.6-0.2,0.8-0.8,0.8H502c-0.6,0-0.8-0.3-0.8-0.8v-19c0-0.6,0.2-0.8,0.8-0.8h2.4
			c0.5,0,0.8,0.2,0.8,0.8V127.5z"/>
		<path class="st1" d="M514.7,108.4l0.1,1.3c1.2-1,3.5-2.5,6.9-2.5c3.9,0,5.9,2.3,5.9,5.3v14.9c0,0.6-0.2,0.8-0.8,0.8h-2.4
			c-0.5,0-0.8-0.3-0.8-0.8v-13.9c0-1.7-0.8-2.8-3.1-2.8c-2.7,0-4.8,1.4-5.7,2.1v14.5c0,0.6-0.2,0.8-0.8,0.8h-2.4
			c-0.6,0-0.8-0.3-0.8-0.8v-19.1c0-0.5,0.2-0.8,0.8-0.8h2.2C514.5,107.7,514.6,107.9,514.7,108.4z"/>
		<path class="st1" d="M545.4,126.3c-1.2,0.9-3.5,2.4-6.9,2.4c-4,0-5.9-2.3-5.9-5.7v-10c0-3.4,1.8-5.7,5.9-5.7
			c3.4,0,5.6,1.5,6.8,2.4V100c0-0.6,0.2-0.8,0.8-0.8h2.4c0.6,0,0.8,0.2,0.8,0.8v27.5c0,0.6-0.2,0.8-0.8,0.8h-2.2
			c-0.6,0-0.8-0.3-0.8-0.8L545.4,126.3z M536.6,122.4c0,1.5,0.7,2.7,3.1,2.7c2.6,0,4.8-1.5,5.7-2.1v-9.9c-0.9-0.7-3-2.2-5.7-2.2
			c-2.4,0-3.1,1.3-3.1,2.7V122.4z"/>
	</g>
	<g>
		<g>
			<g>
				<g>
					
						<linearGradient id="SVGID_1_" gradientUnits="userSpaceOnUse" x1="-118.7773" y1="3664.3562" x2="-195.9593" y2="3664.3562" gradientTransform="matrix(-1 0 0 -1 -118.7773 3702.9458)">
						<stop  offset="0" style="stop-color:#EC1C24"/>
						<stop  offset="1" style="stop-color:#A2238D"/>
					</linearGradient>
					<path class="st2" d="M67.3,0L67.3,0c5.1,0,10,4.4,9.9,9.9C77,33,62.7,76.8,9.9,77.2c-5.4,0-9.9-4.6-9.9-10
						c0-5.4,4.3-10,10.1-10.1C56.3,56.8,57.1,12,57.2,10C57.2,4.5,61.6,0,67.3,0z"/>
				</g>
			</g>
			<g>
				<g>
					
						<linearGradient id="SVGID_00000086650455881606599740000004095302709126957998_" gradientUnits="userSpaceOnUse" x1="123.7224" y1="3664.3562" x2="200.9043" y2="3664.3562" gradientTransform="matrix(1 0 0 -1 -66.5625 3702.9458)">
						<stop  offset="0" style="stop-color:#88288F"/>
						<stop  offset="1" style="stop-color:#FFF100"/>
					</linearGradient>
					<path style="fill:url(#SVGID_00000086650455881606599740000004095302709126957998_);" d="M67.1,0L67.1,0c-5.1,0-10,4.4-9.9,9.9
						c0.2,23.1,14.5,66.9,67.3,67.3c5.4,0,9.9-4.6,9.9-10c0-5.4-4.3-10-10.1-10.1C78.1,56.8,77.2,12,77.2,10C77.1,4.5,72.8,0,67.1,0
						z"/>
				</g>
			</g>
			<g>
				<g>
					
						<linearGradient id="SVGID_00000180353859526695406600000008650780462488302233_" gradientUnits="userSpaceOnUse" x1="-118.7773" y1="2694.4893" x2="-195.9593" y2="2694.4893" gradientTransform="matrix(-1 0 0 1 -118.7773 -2598.7617)">
						<stop  offset="0" style="stop-color:#EC1C24"/>
						<stop  offset="1" style="stop-color:#F6921E"/>
					</linearGradient>
					<path style="fill:url(#SVGID_00000180353859526695406600000008650780462488302233_);" d="M67.3,134.3L67.3,134.3
						c5.1,0,10-4.4,9.9-9.9C77,101.3,62.7,57.5,9.9,57.1c-5.4,0-9.9,4.6-9.9,10c0,5.4,4.3,10,10.1,10.1c46.2,0.4,47,45.2,47.1,47.1
						C57.2,129.8,61.6,134.3,67.3,134.3z"/>
				</g>
			</g>
			<g>
				<g>
					
						<linearGradient id="SVGID_00000013162054270936004190000015361719640993199760_" gradientUnits="userSpaceOnUse" x1="123.7224" y1="2694.4893" x2="200.9043" y2="2694.4893" gradientTransform="matrix(1 0 0 1 -66.5625 -2598.7617)">
						<stop  offset="0" style="stop-color:#FAAF40"/>
						<stop  offset="1" style="stop-color:#FFF100"/>
					</linearGradient>
					<path style="fill:url(#SVGID_00000013162054270936004190000015361719640993199760_);" d="M67.1,134.3L67.1,134.3
						c-5.1,0-10-4.4-9.9-9.9c0.2-23.1,14.5-66.9,67.3-67.3c5.4,0,9.9,4.6,9.9,10c0,5.4-4.3,10-10.1,10.1
						c-46.2,0.4-47,45.2-47.1,47.1C77.1,129.8,72.8,134.3,67.1,134.3z"/>
				</g>
			</g>
			<g>
				<g>
					
						<linearGradient id="SVGID_00000114778507461855615070000000684234231686980229_" gradientUnits="userSpaceOnUse" x1="-233.0771" y1="3664.3562" x2="-310.2591" y2="3664.3562" gradientTransform="matrix(-1 0 0 -1 -118.7773 3702.9458)">
						<stop  offset="0" style="stop-color:#8BC53F"/>
						<stop  offset="1" style="stop-color:#2E3191"/>
					</linearGradient>
					<path style="fill:url(#SVGID_00000114778507461855615070000000684234231686980229_);" d="M181.6,0L181.6,0
						c5.1,0,10,4.4,9.9,9.9C191.3,33,177,76.8,124.2,77.2c-5.4,0-9.9-4.6-9.9-10c0-5.4,4.3-10,10.1-10.1c46.2-0.4,47-45.2,47.1-47.1
						C171.5,4.5,175.9,0,181.6,0z"/>
				</g>
			</g>
			<g>
				<g>
					
						<linearGradient id="SVGID_00000176041579053431100510000012380736379829678779_" gradientUnits="userSpaceOnUse" x1="238.0222" y1="3664.3562" x2="315.2041" y2="3664.3562" gradientTransform="matrix(1 0 0 -1 -66.5625 3702.9458)">
						<stop  offset="0" style="stop-color:#2E3191"/>
						<stop  offset="1" style="stop-color:#00ADEE"/>
					</linearGradient>
					<path style="fill:url(#SVGID_00000176041579053431100510000012380736379829678779_);" d="M181.4,0L181.4,0
						c-5.1,0-10,4.4-9.9,9.9c0.2,23.1,14.5,66.9,67.3,67.3c5.4,0,9.9-4.6,9.9-10c0-5.4-4.3-10-10.1-10.1
						c-46.2-0.4-47-45.2-47.1-47.1C191.4,4.5,187.1,0,181.4,0z"/>
				</g>
			</g>
			<g>
				<g>
					
						<linearGradient id="SVGID_00000075160497926483016940000010274095074816230533_" gradientUnits="userSpaceOnUse" x1="-233.0771" y1="2694.4893" x2="-310.2591" y2="2694.4893" gradientTransform="matrix(-1 0 0 1 -118.7773 -2598.7617)">
						<stop  offset="0" style="stop-color:#EDE708"/>
						<stop  offset="1" style="stop-color:#8BC53F"/>
					</linearGradient>
					<path style="fill:url(#SVGID_00000075160497926483016940000010274095074816230533_);" d="M181.6,134.3L181.6,134.3
						c5.1,0,10-4.4,9.9-9.9c-0.2-23.1-14.5-66.9-67.3-67.3c-5.4,0-9.9,4.6-9.9,10c0,5.4,4.3,10,10.1,10.1
						c46.2,0.4,47,45.2,47.1,47.1C171.5,129.8,175.9,134.3,181.6,134.3z"/>
				</g>
			</g>
			<g>
				<g>
					
						<linearGradient id="SVGID_00000153694469344968290120000011431393577521330621_" gradientUnits="userSpaceOnUse" x1="238.0222" y1="2694.4893" x2="315.2041" y2="2694.4893" gradientTransform="matrix(1 0 0 1 -66.5625 -2598.7617)">
						<stop  offset="0" style="stop-color:#8BC53F"/>
						<stop  offset="1" style="stop-color:#00ADEE"/>
					</linearGradient>
					<path style="fill:url(#SVGID_00000153694469344968290120000011431393577521330621_);" d="M181.4,134.3L181.4,134.3
						c-5.1,0-10-4.4-9.9-9.9c0.2-23.1,14.5-66.9,67.3-67.3c5.4,0,9.9,4.6,9.9,10c0,5.4-4.3,10-10.1,10.1
						c-46.2,0.4-47,45.2-47.1,47.1C191.4,129.8,187.1,134.3,181.4,134.3z"/>
				</g>
			</g>
		</g>
		<path class="st10" d="M134.4,67.2c0,5.6-4.5,10.1-10.1,10.1c-5.6,0-10.1-4.5-10.1-10.1c0-5.6,4.5-10.1,10.1-10.1
			C129.9,57.1,134.4,61.6,134.4,67.2z"/>
	</g>
</g>
</svg>
